# xmcd
#
# Track frame offsets:
#	150
#	18531
#	34408
#	47156
#	66733
#	80829
#	95532
#	112340
#	133825
#	149562
#	167943
#	183820
#	196568
#	216145
#	230241
#	244944
#	261752
#	283237
#
# Disc length: 3986
#
# Revision: 1
# Processed by: cddbd v1.5.2PL0 Copyright (c) Steve Scherf et al.
# Submitted via: kJams Pro (development) 1.0patch45.9
#
DISCID=270f9012
DTITLE=Various Artist - NSC 3017
DYEAR=1995
DGENRE=Country
TTITLE0=Diamond Rio - Sweet Summer
TTITLE1=Faith Hill - There You'll Be
TTITLE2=Toby Keith - I'm Just Talkin' About Tonight
TTITLE3=Shedaisy - Still Holding Out For You
TTITLE4=Alabama - Will You Marry Me
TTITLE5=Cyndy Thomson - What I Really Meant To Say
TTITLE6=Carolyn  Dawn Johnson - Complicated
TTITLE7=Sons Of The Desert - What I Did Right
TTITLE8=Tammy Cochran - Angels In Waiting
TTITLE9=Diamond Rio - Vocals - Sweet Summer
TTITLE10=Faith Hill - Vocals - There You'll Be
TTITLE11=Toby Keith - Vocals - I'm Just Talkin' About Tonight
TTITLE12=Shedaisy - Vocals - Still Holding Out For You
TTITLE13=Alabama - Vocals - Will You Marry Me
TTITLE14=Cyndy Thomson - Vocals - What I Really Meant To Say
TTITLE15=Carolyn Dawn Johnson - Vocals - Complicated
TTITLE16=Sons Of The Desert - Vocals - What I Did Right
TTITLE17=Tammy Cochran - Vocals - Angels In Waiting
EXTD=
EXTT0=
EXTT1=
EXTT2=
EXTT3=
EXTT4=
EXTT5=
EXTT6=
EXTT7=
EXTT8=
EXTT9=
EXTT10=
EXTT11=
EXTT12=
EXTT13=
EXTT14=
EXTT15=
EXTT16=
EXTT17=
PLAYORDER=
